<svg width="29" height="28" viewBox="0 0 29 28" fill="none" xmlns="http://www.w3.org/2000/svg">
<g id="&#208;&#159;&#208;&#190;&#209;&#136;&#209;&#131;&#208;&#186;">
<path fill-rule="evenodd" clip-rule="evenodd" d="M21.1501 20.9051C16.8264 25.1868 9.75879 25.1578 5.36415 20.806C0.969516 16.4542 0.940288 9.45545 5.26405 5.17381C9.58782 0.892165 16.6554 0.921108 21.05 5.27293C25.4447 9.62475 25.4739 16.6235 21.1501 20.9051ZM21.8454 21.6239C17.1201 26.2866 9.42768 26.2372 4.65359 21.5096C-0.125658 16.7769 -0.170473 9.14812 4.55349 4.47017C9.27746 -0.207775 16.9813 -0.163396 21.7606 4.56929C26.5347 9.29687 26.5846 16.9143 21.876 21.5936L22.2763 21.1972L26.9964 25.8713L26.2859 26.575L21.5657 21.9008L21.8454 21.6239Z" fill="black"/>
<path d="M21.8454 21.6239L22.5559 22.3275L21.1361 20.919L21.8454 21.6239ZM21.876 21.5936L21.1642 20.8912L22.5865 22.2972L21.876 21.5936ZM22.2763 21.1972L22.9868 20.4935L22.2763 19.7899L21.5657 20.4935L22.2763 21.1972ZM26.9964 25.8713L27.707 26.575L28.4176 25.8713L27.707 25.1677L26.9964 25.8713ZM26.2859 26.575L25.5753 27.2786L26.2859 27.9823L26.9964 27.2786L26.2859 26.575ZM21.5657 21.9008L20.8552 21.1972L20.1446 21.9008L20.8552 22.6045L21.5657 21.9008ZM4.65359 21.5096C9.43306 26.2425 17.1369 26.2865 21.8607 21.6088L20.4396 20.2015C16.5158 24.087 10.0845 24.0731 6.07471 20.1024L4.65359 21.5096ZM4.55349 4.47017C-0.170263 9.14791 -0.125871 16.7767 4.65359 21.5096L6.07471 20.1024C2.0649 16.1316 2.05084 9.76299 5.97461 5.87744L4.55349 4.47017ZM21.7606 4.56929C16.9811 -0.163608 9.27725 -0.207566 4.55349 4.47017L5.97461 5.87744C9.89839 1.9919 16.3297 2.00582 20.3395 5.97657L21.7606 4.56929ZM21.8607 21.6088C26.5845 16.931 26.5401 9.3022 21.7606 4.56929L20.3395 5.97657C24.3493 9.94731 24.3633 16.3159 20.4396 20.2015L21.8607 21.6088ZM3.94303 22.2133C9.10134 27.3213 17.4291 27.3865 22.5547 22.3288L21.1361 20.919C16.8111 25.1867 9.75403 25.1531 5.36415 20.806L3.94303 22.2133ZM3.84293 3.76653C-1.28123 8.84078 -1.22083 17.0997 3.94303 22.2133L5.36415 20.806C0.969516 16.4542 0.940288 9.45545 5.26405 5.17381L3.84293 3.76653ZM22.4712 3.86566C17.3073 -1.2479 8.96711 -1.30772 3.84293 3.76653L5.26405 5.17381C9.58782 0.892165 16.6554 0.921108 21.05 5.27293L22.4712 3.86566ZM22.5878 22.296C27.6953 17.2203 27.6295 8.97371 22.4712 3.86566L21.05 5.27293C25.4399 9.62004 25.4738 16.6084 21.1642 20.8912L22.5878 22.296ZM22.5865 22.2972L22.9868 21.9008L21.5657 20.4935L21.1654 20.89L22.5865 22.2972ZM21.5657 21.9008L26.2859 26.575L27.707 25.1677L22.9868 20.4935L21.5657 21.9008ZM26.2859 25.1677L25.5753 25.8713L26.9964 27.2786L27.707 26.575L26.2859 25.1677ZM26.9964 25.8713L22.2763 21.1972L20.8552 22.6045L25.5753 27.2786L26.9964 25.8713ZM22.2763 22.6045L22.5559 22.3275L21.1348 20.9203L20.8552 21.1972L22.2763 22.6045Z" fill="black"/>
</g>
</svg>
