<svg width="33" height="34" viewBox="0 0 33 34" fill="none" xmlns="http://www.w3.org/2000/svg">
<g id="&#208;&#155;&#208;&#190;&#208;&#186;&#208;&#176;&#209;&#134;&#209;&#150;&#209;&#143;">
<path fill-rule="evenodd" clip-rule="evenodd" d="M6.12405 19.1655C8.74065 21.0671 12.4059 22.2883 16.5 22.3164C20.5941 22.3444 24.2593 21.1735 26.8759 19.3079C29.494 17.4411 31 14.9358 31 12.2579C31 9.58003 29.494 7.05399 26.8759 5.15136C24.2593 3.24981 20.5941 2.0286 16.5 2.00052C12.4059 1.97244 8.74065 3.14337 6.12406 5.00902C3.50596 6.87574 1.99998 9.38112 1.99998 12.059C1.99998 14.7369 3.50596 17.2629 6.12405 19.1655ZM1 12.0521C1 18.2044 7.91691 23.2411 16.458 23.316L15.9655 23.3127V29.3988L16.9655 29.4057L16.9655 23.3195L16.542 23.3166C25.0831 23.3589 32 18.417 32 12.2648C32 6.1024 25.0604 1.05923 16.5 1.00052C7.93959 0.941803 1 5.88978 1 12.0521ZM5.03937 32.5088H27.7615V30.5088H5.03937V32.5088Z" fill="black"/>
<path d="M16.5 22.3164L16.5069 21.3164H16.5069L16.5 22.3164ZM6.12405 19.1655L6.71194 18.3566H6.71194L6.12405 19.1655ZM26.8759 19.3079L26.2954 18.4936L26.8759 19.3079ZM26.8759 5.15136L26.2881 5.9603L26.8759 5.15136ZM16.5 2.00052L16.5069 1.00054V1.00054L16.5 2.00052ZM6.12406 5.00902L6.7046 5.82325H6.7046L6.12406 5.00902ZM1.99998 12.059H2.99998H1.99998ZM16.458 23.316L16.4512 24.316L16.4668 22.3161L16.458 23.316ZM1 12.0521H0H1ZM15.9655 23.3127L15.9723 22.3127L14.9655 22.3058V23.3127H15.9655ZM15.9655 29.3988H14.9655V30.392L15.9586 30.3988L15.9655 29.3988ZM16.9655 29.4057L16.9586 30.4056L17.9655 30.4125V29.4057H16.9655ZM16.9655 23.3195H17.9655V22.3263L16.9723 22.3195L16.9655 23.3195ZM16.542 23.3166L16.5469 22.3166L16.5351 24.3166L16.542 23.3166ZM32 12.2648H33H32ZM16.5 1.00052L16.5069 0.000540733L16.5 1.00052ZM27.7615 32.5088V33.5088H28.7615V32.5088H27.7615ZM5.03937 32.5088H4.03937V33.5088H5.03937V32.5088ZM27.7615 30.5088H28.7615V29.5088H27.7615V30.5088ZM5.03937 30.5088V29.5088H4.03937V30.5088H5.03937ZM16.5069 21.3164C12.599 21.2896 9.14212 20.1226 6.71194 18.3566L5.53617 19.9745C8.33919 22.0115 12.2128 23.287 16.4931 23.3163L16.5069 21.3164ZM26.2954 18.4936C23.869 20.2236 20.4149 21.3432 16.5069 21.3164L16.4931 23.3163C20.7733 23.3457 24.6497 22.1234 27.4565 20.1221L26.2954 18.4936ZM30 12.2579C30 14.5321 28.7234 16.7625 26.2954 18.4936L27.4565 20.1221C30.2647 18.1198 32 15.3394 32 12.2579H30ZM26.2881 5.9603C28.7211 7.72843 30 9.98156 30 12.2579H32C32 9.17849 30.267 6.37955 27.4638 4.34241L26.2881 5.9603ZM16.4931 3.00049C20.401 3.0273 23.8579 4.19423 26.2881 5.9603L27.4638 4.34241C24.6608 2.30539 20.7872 1.0299 16.5069 1.00054L16.4931 3.00049ZM6.7046 5.82325C9.13097 4.09323 12.5851 2.97369 16.4931 3.00049L16.5069 1.00054C12.2267 0.971184 8.35033 2.19351 5.54351 4.1948L6.7046 5.82325ZM2.99998 12.059C2.99998 9.78475 4.27663 7.55441 6.7046 5.82325L5.54351 4.1948C2.73529 6.19707 0.999977 8.97749 0.999976 12.059H2.99998ZM6.71194 18.3566C4.27892 16.5884 2.99998 14.3353 2.99998 12.059H0.999976C0.999976 15.1384 2.73299 17.9373 5.53617 19.9745L6.71194 18.3566ZM16.4668 22.3161C12.3821 22.2803 8.72564 21.0568 6.11493 19.1548C3.5022 17.2514 2 14.7267 2 12.0521H0C-2.38419e-07 15.5298 1.95626 18.5996 4.93726 20.7714C7.92027 22.9446 11.9929 24.2769 16.4493 24.316L16.4668 22.3161ZM15.9586 24.3126L16.4512 24.316L16.4649 22.3161L15.9723 22.3127L15.9586 24.3126ZM16.9655 29.3988V23.3127H14.9655V29.3988H16.9655ZM16.9723 28.4057L15.9723 28.3988L15.9586 30.3988L16.9586 30.4056L16.9723 28.4057ZM15.9655 23.3195L15.9655 29.4057H17.9655V23.3195H15.9655ZM16.5351 24.3166L16.9586 24.3195L16.9723 22.3195L16.5488 22.3166L16.5351 24.3166ZM31 12.2648C31 14.9372 29.5001 17.4361 26.8924 19.3001C24.2855 21.1635 20.6318 22.3368 16.5469 22.3166L16.537 24.3166C20.9933 24.3387 25.0686 23.0622 28.0554 20.9272C31.0414 18.7927 33 15.7445 33 12.2648L31 12.2648ZM16.4931 2.00049C20.5872 2.02857 24.2538 3.24979 26.8723 5.15272C29.4929 7.05716 31 9.58582 31 12.2648H33C33 8.78133 31.0373 5.70723 28.048 3.53482C25.0566 1.3609 20.9732 0.0311749 16.5069 0.000540733L16.4931 2.00049ZM2 12.0521C2 9.37531 3.50483 6.87257 6.12039 5.00765C8.73508 3.14336 12.399 1.97241 16.4931 2.00049L16.5069 0.000540733C12.0406 -0.0300925 7.95451 1.24359 4.9593 3.3792C1.96497 5.51418 2.38419e-07 8.5666 0 12.0521H2ZM27.7615 31.5088H5.03937V33.5088H27.7615V31.5088ZM26.7615 30.5088V32.5088H28.7615V30.5088H26.7615ZM5.03937 31.5088H27.7615V29.5088H5.03937V31.5088ZM6.03937 32.5088V30.5088H4.03937V32.5088H6.03937Z" fill="black"/>
</g>
</svg>
